# xmcd
#
# Track frame offsets:
#	150
#	17818
#	36006
#	50923
#	71358
#	86816
#	105627
#	123048
#	137679
#	155216
#	168880
#	191322
#
# Disc length: 2801 seconds
#
# Revision: 0
# Processed by: cddbd v1.4PL0 Copyright (c) Steve Scherf et al.
# Submitted via: audiograbber 1.81.00
#
DISCID=9c0aef0c
DTITLE=RUGGERO SCANDIUZZI - L'ANGELO DEL SORRISO
DYEAR=1900
DGENRE=POP
TTITLE0=BUONA NOTTE AMORE MIO
TTITLE1=AMORE AMARO
TTITLE2=ZINGARA BRUNA
TTITLE3=L'ANGELO DEL SORRISO
TTITLE4=CANTANDO UNA CANZONE
TTITLE5=MARE BLU 
TTITLE6=PER AMORE DI LEI
TTITLE7=IL TRENO VA
TTITLE8=AMICO TIR
TTITLE9=IL MIO MONDO
TTITLE10=CAFFE' DI GENOVA
TTITLE11=OLE' SPAGNOLA
EXTD=
EXTT0=
EXTT1=
EXTT2=
EXTT3=
EXTT4=
EXTT5=
EXTT6=
EXTT7=
EXTT8=
EXTT9=
EXTT10=
EXTT11=
PLAYORDER=
